<?xml version="1.0" encoding="utf-8"?>
<!-- Generator: Adobe Illustrator 21.0.2, SVG Export Plug-In . SVG Version: 6.00 Build 0)  -->
<svg version="1.1" xmlns="http://www.w3.org/2000/svg" xmlns:xlink="http://www.w3.org/1999/xlink" x="0px" y="0px"
	 viewBox="0 0 500 500" style="enable-background:new 0 0 500 500;" xml:space="preserve">
<style type="text/css">
	.st0{display:none;}
	.st1{display:inline;fill:#FFFFFF;stroke:#999999;stroke-width:5;stroke-miterlimit:10;}
	.st2{fill:#FFFFFF;stroke:#000000;stroke-width:5;stroke-miterlimit:10;}
</style>
<g id="Layer_1" class="st0">
	<polyline class="st1" points="250,249.5 206,250.5 228,212.5 271,212.5 293,250.5 271,288.5 213,288.5 191,250.5 220,199.5 
		279,199.5 308,250.5 279,300.5 206,300.5 177,250.5 213,187.5 286,187.5 322,250.5 286,313.5 195,313.5 158,250.5 204,171.5 
		295,171.5 341,250.5 295,329.5 182,329.5 136,250.5 193,151.5 306,151.5 363,250.5 306,348.5 164,348.5 107,251.5 178,126.5 
		321,126.5 392,250.5 321,373.5 153,373.5 82,250.5 166,105.5 333,105.5 417,250.5 333,395.5 136,395.5 52,249.5 151,79.5 348,79.5 
		447,249.5 348,420.5 116,420.5 18,249.5 134,49.5 365,49.5 481,249.5 365,450.5 133,450.5 	"/>
</g>
<g id="Layer_2">
	<polyline class="st2" points="249.5,249.5 205.5,250.5 227.5,212.5 270.5,212.5 292.5,250.5 270.5,288.5 212.5,288.5 190.5,250.5 
		219.5,199.5 278.5,199.5 307.5,250.5 278.5,300.5 205.5,300.5 176.5,250.5 212.5,187.5 285.5,187.5 321.5,250.5 285.5,313.5 
		194.5,313.5 157.5,250.5 203.5,171.5 294.5,171.5 340.5,250.5 294.5,329.5 181.5,329.5 135.5,250.5 192.5,151.5 305.5,151.5 
		362.5,250.5 305.5,348.5 163.5,348.5 106.5,251.5 177.5,126.5 320.5,126.5 391.5,250.5 320.5,373.5 152.5,373.5 81.5,250.5 
		165.5,105.5 332.5,105.5 416.5,250.5 332.5,395.5 135.5,395.5 51.5,249.5 150.5,79.5 347.5,79.5 446.5,249.5 347.5,420.5 
		115.5,420.5 17.5,249.5 133.5,49.5 364.5,49.5 480.5,249.5 364.5,450.5 132.5,450.5 	"/>
</g>
</svg>
